<?xml version="1.0" encoding="UTF-8" standalone="no"?>
<svg width="183px" height="88px" viewBox="0 0 183 88" version="1.1" xmlns="http://www.w3.org/2000/svg" xmlns:xlink="http://www.w3.org/1999/xlink" xmlns:sketch="http://www.bohemiancoding.com/sketch/ns">
    <!-- Generator: Sketch 3.3 (11970) - http://www.bohemiancoding.com/sketch -->
    <title>Short Logo</title>
    <desc>Created with Sketch.</desc>
    <defs></defs>
    <g id="Welcome" stroke="none" stroke-width="1" fill="none" fill-rule="evenodd" sketch:type="MSPage">
        <g id="Desktop-HD" sketch:type="MSArtboardGroup" transform="translate(-1140.000000, -185.000000)">
            <g id="Short-Logo" sketch:type="MSLayerGroup" transform="translate(1140.000000, 185.000000)">
                <path d="M90.2044009,0.173253611 L42.7558633,0.173253611 C0.3625888,0.173253611 0.3625888,40.3213134 0.3625888,40.3213134 C0.3625888,40.3213134 0.362588906,86.9456459 0.3625888,87.2264007 C20.0154857,86.9456459 20.0154852,71.2233279 20.0154852,71.2233279 C20.0154852,71.2233279 20.0154857,40.6010223 20.0154852,40.6010215 C20.0154857,18.7031265 42.7566939,18.7031274 42.7566939,18.7031274 L71.6867906,18.7031274 C71.6867906,18.7031274 71.6867923,72.9078651 71.6867906,72.9078631 C71.6867923,86.9456459 90.7659123,86.945645 90.7659123,86.945645 L90.2044009,0.173253611 Z" id="N1" fill="#3C3C3C" sketch:type="MSShapeGroup"></path>
                <path d="M108,18.983883 C108,18.983883 162.999998,18.983882 163,18.9838825 C183,18.9838825 183,0.173253622 183,0.173253622 C183,0.173253622 128,0.173253596 128,0.173253622 C108,0.173253596 108,18.983883 108,18.983883 Z" id="E.1" fill="#FF0000" sketch:type="MSShapeGroup"></path>
                <path d="M108,53.1051419 C108,53.1051419 162.999998,53.1051408 163,53.1051413 C183,53.1051413 183,34.2945124 183,34.2945124 C183,34.2945124 128,34.2945124 128,34.2945124 C108,34.2945124 108,53.1051419 108,53.1051419 Z" id="E.2" fill="#40B766" sketch:type="MSShapeGroup"></path>
                <path d="M108,87.2264007 C108,87.2264007 162.999998,87.2263996 163,87.2264002 C183,87.2264002 183,68.4157713 183,68.4157713 C183,68.4157713 128,68.4157712 128,68.4157713 C108,68.4157712 108,87.2264007 108,87.2264007 Z" id="E.2-Copy" fill="#0595FF" sketch:type="MSShapeGroup"></path>
            </g>
        </g>
    </g>
</svg>